# xmcd
# 
# Track frame offsets:
#     150
#     15580
#     31044
#     48662
#     67760
#     86432
#     101509
#     119519
#     134755
#     150851
#     166443
#     184616
#     205234
#     221206
#     235213
#     249920
#     267104
#     280555
#     295556
#     314470
#     329162
# 
# Disc length: 4567
# 
# Revision: 5
# Processed by: cddbd v1.5.2PL0 Copyright (c) Steve Scherf et al.
# Submitted via: fre:ac v1.1beta2
# 
DISCID=2511d515
DTITLE=Various Artist - Så mycket bättre - säsong 2
DYEAR=2011
DGENRE=Pop
TTITLE0=Lena Philipsson - Live Tomorrow
TTITLE1=Tomas Ledin - Gott Folk
TTITLE2=Mikael Wiehe - Om igen
TTITLE3=Laleh - Ängeln i rummet
TTITLE4=Eva Dahlgren - Never Again
TTITLE5=Timbuktu - Kamoflage (Invisible)
TTITLE6=E-Type - Titanic
TTITLE7=Lena Philipsson - Sensuella Isabella
TTITLE8=Tomas Ledin - Dansa i neon
TTITLE9=Mikael Wiehe - Jag ropar ditt namn (Calling Your Name)
TTITLE10=Laleh - Just Nu
TTITLE11=Eva Dahlgren - Strö lite socker på mig
TTITLE12=Timbuktu - Flickan och Kråkan
TTITLE13=E-Type - Jag är Gud
TTITLE14=Lena Philipsson - Vem kan man lita på?
TTITLE15=Tomas Ledin - Set The World On Fire
TTITLE16=Mikael Wiehe - Han tuggar kex
TTITLE17=Laleh - Here I Go Again
TTITLE18=Eva Dahlgren - Standing In My Rain
TTITLE19=Timbuktu - Kom och håll om mig
TTITLE20=E-Type - Det löser sig
EXTD=YEAR: 2011
EXTT0=
EXTT1=
EXTT2=
EXTT3=
EXTT4=
EXTT5=
EXTT6=
EXTT7=
EXTT8=
EXTT9=
EXTT10=
EXTT11=
EXTT12=
EXTT13=
EXTT14=
EXTT15=
EXTT16=
EXTT17=
EXTT18=
EXTT19=
EXTT20=
PLAYORDER=
